<svg id="Layer_1" data-name="Layer 1" xmlns="http://www.w3.org/2000/svg" width="516" height="768" viewBox="0 0 516 768">
  <title>hydrophobicity</title>
  <g>
    <path d="M256,1h37l1,1c1.07,4.6,1.08,9.28,1.11,14-1,1.18-1,2.21.44,3L296,95a4,4,0,0,0,0,5l0,3.94a5.06,5.06,0,0,0,0,6.06V114a5.06,5.06,0,0,0,0,6.06l0,3.93a5,5,0,0,0-.05,6.07v3a5.06,5.06,0,0,0,.06,6.06l0,3.93a5.06,5.06,0,0,0,0,6.06,58.19,58.19,0,0,0,1.06,7.38c2.73,10,3.08,20.3,4.09,30.52,1.48,15.08.94,30.19,1,45.29.06,10.63,2.62,21.09,1.79,31.75a1.24,1.24,0,0,0,.06,2c1.14,2.79.7,6,3.87,8.21,11.13,7.89,23.34,13.92,35,20.87,8.39,5,12.08,13.2,15,21.94-.9,1.18-.82,2.19.52,3,1.17,6.7,2,13.48,3.59,20.07,3.54,14.45,4.62,28.76-.56,43.07-1.77,4.91-4.6,9-9.34,11.17a56.2,56.2,0,0,1-15.1,4.87c-2.15-.82-4.51-3-6,.89,6.63,3.55,9.21,10.71,14.08,15.76a33.17,33.17,0,0,1,9.58,23.36c.2,11-.18,21.72-10.21,29.77-7.45,6-14.8,11.88-23.77,15.2-4.63,1.71-5.73,4.73-5.7,9.15,0,7.3.39,14.58-.56,21.91C312.61,530,311,545,313,559.94c.83,6.31.44,12.6.46,18.9,0,14.45.15,28.9.08,43.34-.05,11.79.42,23.6-.7,35.36-2,21.19-4.67,42.32-5.54,63.6-.65,15.94-.87,31.9-1.29,47.85H268c.21-16.47.07-33,.73-49.4.87-21.61,3.7-43.08,5.55-64.62,1.64-19.1.57-38.28.66-57.42.06-11.65,1-23.36-.5-34.93-1.7-13-.44-25.89.42-38.79.71-10.61,2.53-21.15,1.9-31.84a45.1,45.1,0,0,1,1.89-16.79c3.28-9.79,7.59-19.1,18.95-22.83a54.54,54.54,0,0,0,15.67-7.62c1.23-.92,3.66-2,2.21-3.75-2.62-3.08-3.86-7.39-8.29-9-8.79-3.18-17.85-2.15-26.65-1.18-21.16,2.32-42.24,5.32-63.32,8.35-12.51,1.8-24.94,4.23-37.41,6.3-2.81.47-4.25,1.21-2.87,4.5,2.57,6.16,4.86,12.44,9.1,17.7,5,6.2,8.32,13.63,14.24,19.19,1.92,1.81,2.37,4.68,3.2,7.23,3.92,12.12,2.58,24.36.95,36.57a225,225,0,0,0-.72,50.75c1.69,18.22,3.36,36.45,3.47,54.76.15,24.3.13,48.61.1,72.91,0,20-.18,39.94-.27,59.91H169c-.07-5.49-.19-11-.19-16.47,0-31-.11-61.94,0-92.91.1-21.15-.51-42.26-2.48-63.33-1.06-11.41-2-22.8-2.27-34.3-.32-16.39,2-32.5,3.33-48.72.19-2.36.55-5.08-1.15-6.7-4.7-4.48-6.72-10.74-10.8-15.54-6.83-8-10.73-17.61-14.47-27.18-2.14-5.49-4.74-11-4.57-17.27.15-5.47,0-11-.27-16.44-.54-12,7.57-20.84,19.6-21.2,3.49-.1,7.06.34,10.47-.21,18.56-3,37.09-6.18,55.63-9.31l2.1-.55c4-.52,8.11-.47,12-1.76l3-.12,13.86-1.75,2.1-.39,5.9-.61,2.1-.38L281,392a1.51,1.51,0,0,0,2-.21l13.92-.27c5,1.19,10.27-.33,15.19,1.59,1,.6,2.32,2.16,3.18.6,1-1.77-.94-2.28-2.28-2.75-5.2-2.68-10.66-2.21-16.15-1.33l-20.88-.43a3.73,3.73,0,0,0-3.08-.62l-4.88-.54-2.13-.29c-2.57-.84-5.1-1.81-7.88-1.7l-2.12-.34a21.35,21.35,0,0,0-7.87-1.69l-2.12-.43L234,381.34c-1.58-1.75-3.27-1.46-5-.28-5,.2-10,.46-15-.69-1.57-1.79-3.27-1.49-5-.3-12.44.55-23.67-4.1-35.19-7.86s-21.7-9.27-28.13-19.92c-5-8.33-10.74-16.62-7.86-27.29,1.71-1.95,1.4-4,.19-6a40.59,40.59,0,0,1,9.26-20.52c3.51-4,6-8.33,6.79-13.59,1.07-7.55,1.63-15.19,3.11-22.66,1.57-7.94,4.35-15.54,4.22-23.91-.08-5-.07-10.31,1.36-15.33,1.67-1.62,1.39-3.31.17-5,0-8.35,1.21-16.6,1.94-24.89a3.87,3.87,0,0,0,.08-5.1V184a3.88,3.88,0,0,0-.06-5.09l0-4.9a3.87,3.87,0,0,0,0-5.1v-4.89c1.24-1.73,1.54-3.43-.19-5a40.19,40.19,0,0,1-.81-9.4c-.14-12.44,1-25-1.8-37.24A89.25,89.25,0,0,1,160,93.1c-.15-24.25.24-48.5-.09-72.74C159.84,13,161.26,6.61,166,1h26c3.17,3.41,6.12,6.93,6,12a5.09,5.09,0,0,0,0,6l.07,3.91a3.84,3.84,0,0,0,0,5.12L198.07,32a5,5,0,0,0,0,6.07l0,3.92a5,5,0,0,0,0,6.07l0,3.91a5,5,0,0,0,0,6.08l.07,3.91a3.83,3.83,0,0,0,0,5.13L198.07,71a5,5,0,0,0,0,6.07l0,3.92a5,5,0,0,0,0,6.07l0,3.92c-1.23,1.75-1.54,3.45.26,5,1.46,11.3,4.89,22.39,3.67,34a4,4,0,0,0,0,5l0,5a3,3,0,0,0,0,4.07V150c-1.21,1.71-1.47,3.39.12,5,1.72,7.9.55,15.9.79,23.85A305.91,305.91,0,0,1,200.27,226c-1.8,1.93-1.46,3.95-.25,6-.07,4.65,0,9.31-.85,13.91a4.94,4.94,0,0,0-.08,6.11c-2.5,11.6-5.55,23.1-6.62,35-1.35.86-1.35,1.89-.38,3-1.65,11.19-5.16,21.56-12.89,30.17-5.18,5.77-4.05,11.05,3.21,14.1,5,2.12,10.36,3.58,15.47,5.55,6.51,2.52,13.53,1.31,20.14,3,1.63,1.51,3.3,1.28,5,.12a107.65,107.65,0,0,1,29,2.67,1.19,1.19,0,0,0,2,.36c15.95,3.59,32,5.77,48.44,5a72.4,72.4,0,0,1,22.71,2.33l1.19-.2-.61-1.1c-2.85-6.36-3.49-13.14-3.83-20a1.19,1.19,0,0,0-.24-2c-.52-2.65-2.11-4.23-4.54-5.45-14.74-7.39-28.28-16.71-41.74-26.15-4.65-3.26-8.16-7.32-8.42-13.39a5.05,5.05,0,0,0-.08-6.06l0-3.89c1.26-1.75,1.59-3.46-.26-5.06-1.11-4.6-1-9.26-.77-13.93.79-.84.65-1.53-.35-2.07a108.69,108.69,0,0,1-1.33-10.84c-.48-18.72-.78-37.44-1.14-56.17,1.11-1.76,1.39-3.45-.38-5a9.63,9.63,0,0,1-.67-5c.91-1.08,1-2.09-.23-3-1.27-5.83-3.48-11.64-3.65-17.5-.66-23.08,0-46.18-.72-69.29-.74-24.7.2-49.45-.47-74.18,1-1.17,1-2.2-.42-3Zm72.29,397.42c-.25-.14-.52-.41-.72-.36s-.63.36-.65.58c-.05.65.43.76.9.53C328,399.05,328.13,398.67,328.29,398.42Zm-10.82-3.68.21-.34-.34,0Z" style="fill: #c63fa6"/>
    <path d="M294,1V2l-1-1Z" style="fill: #c63fa6"/>
    <path d="M296.88,391.57l-.06-1.89c5.49-.88,10.95-1.36,16.15,1.33l-.9,2.15C307.15,391.24,301.87,392.76,296.88,391.57Z" style="fill: #f0cfe8"/>
    <path d="M337.08,399.17c-1.8,1.54-4,.55-6,.89C332.57,396.17,334.93,398.35,337.08,399.17Z" style="fill: #c63fa6"/>
    <path d="M199.17,245.92a7.41,7.41,0,0,1-.08,6.11A4.94,4.94,0,0,1,199.17,245.92Z" style="fill: #c63fa6"/>
    <path d="M296.06,143a7.63,7.63,0,0,1,0,6.06A5.06,5.06,0,0,1,296.06,143Z" style="fill: #c63fa6"/>
    <path d="M200.27,226a9,9,0,0,1-.25,6C198.81,230,198.46,227.94,200.27,226Z" style="fill: #c63fa6"/>
    <path d="M296,133a7.72,7.72,0,0,1,.06,6.06A5.06,5.06,0,0,1,296,133Z" style="fill: #c63fa6"/>
    <path d="M267,285a7.15,7.15,0,0,1-.08-6.06A5.05,5.05,0,0,1,267,285Z" style="fill: #c63fa6"/>
    <path d="M296.1,124a7.74,7.74,0,0,1-.05,6.07A5,5,0,0,1,296.1,124Z" style="fill: #c63fa6"/>
    <path d="M296.08,114a7.61,7.61,0,0,1,0,6.06A5.06,5.06,0,0,1,296.08,114Z" style="fill: #c63fa6"/>
    <path d="M296.06,104a7.6,7.6,0,0,1,0,6.06A5.06,5.06,0,0,1,296.06,104Z" style="fill: #c63fa6"/>
    <path d="M312.07,393.16,313,391c1.35.47,3.25,1,2.28,2.75C314.39,395.32,313.09,393.76,312.07,393.16Z" style="fill: #c63fa6"/>
    <path d="M198,13a7.22,7.22,0,0,1,0,6A5.09,5.09,0,0,1,198,13Z" style="fill: #c63fa6"/>
    <path d="M198.09,81a7.55,7.55,0,0,1,0,6.07A5,5,0,0,1,198.09,81Z" style="fill: #c63fa6"/>
    <path d="M198.07,71a7.62,7.62,0,0,1,0,6.07A5,5,0,0,1,198.07,71Z" style="fill: #c63fa6"/>
    <path d="M137.8,325a9.84,9.84,0,0,1,.19-6C139.19,321,139.51,323,137.8,325Z" style="fill: #c63fa6"/>
    <path d="M198.11,51.95a7.65,7.65,0,0,1,0,6.08A5,5,0,0,1,198.11,51.95Z" style="fill: #c63fa6"/>
    <path d="M198.09,42a7.56,7.56,0,0,1,0,6.07A5,5,0,0,1,198.09,42Z" style="fill: #c63fa6"/>
    <path d="M198.07,32a7.6,7.6,0,0,1,0,6.07A5,5,0,0,1,198.07,32Z" style="fill: #c63fa6"/>
    <path d="M162.74,223a7,7,0,0,1,.17-5C164.12,219.68,164.4,221.37,162.74,223Z" style="fill: #c63fa6"/>
    <path d="M164.85,193.07a6.12,6.12,0,0,1,.08-5.1A3.87,3.87,0,0,1,164.85,193.07Z" style="fill: #c63fa6"/>
    <path d="M266.86,275.06a7.17,7.17,0,0,1-.26-5.06C268.44,271.6,268.12,273.31,266.86,275.06Z" style="fill: #c63fa6"/>
    <path d="M234,381.34a7.58,7.58,0,0,1-5-.28C230.72,379.88,232.41,379.59,234,381.34Z" style="fill: #c63fa6"/>
    <path d="M214,380.37a6.62,6.62,0,0,1-5-.3C210.72,378.88,212.42,378.58,214,380.37Z" style="fill: #c63fa6"/>
    <path d="M218,342.85a7.82,7.82,0,0,1,5,.12C221.32,344.13,219.64,344.36,218,342.85Z" style="fill: #c63fa6"/>
    <path d="M263,187a7.69,7.69,0,0,1-.38-5C264.4,183.54,264.12,185.24,263,187Z" style="fill: #c63fa6"/>
    <path d="M164.93,184a6,6,0,0,1-.06-5.09A3.88,3.88,0,0,1,164.93,184Z" style="fill: #c63fa6"/>
    <path d="M164.9,174a6,6,0,0,1,0-5.1A3.87,3.87,0,0,1,164.9,174Z" style="fill: #c63fa6"/>
    <path d="M164.88,164.05a7,7,0,0,1-.19-5C166.42,160.63,166.12,162.32,164.88,164.05Z" style="fill: #c63fa6"/>
    <path d="M202.09,150a7.3,7.3,0,0,1,.12,5C200.62,153.35,200.88,151.67,202.09,150Z" style="fill: #c63fa6"/>
    <path d="M202,130a5.92,5.92,0,0,1,0,5A4,4,0,0,1,202,130Z" style="fill: #c63fa6"/>
    <path d="M296,95a5.61,5.61,0,0,1,0,5A4,4,0,0,1,296,95Z" style="fill: #c63fa6"/>
    <path d="M198.11,91a7,7,0,0,1,.26,5C196.57,94.4,196.88,92.7,198.11,91Z" style="fill: #c63fa6"/>
    <path d="M198.14,61.94a6,6,0,0,1,0,5.13A3.83,3.83,0,0,1,198.14,61.94Z" style="fill: #c63fa6"/>
    <path d="M198.14,22.94a6,6,0,0,1,0,5.12A3.84,3.84,0,0,1,198.14,22.94Z" style="fill: #c63fa6"/>
    <path d="M202.06,140a4.42,4.42,0,0,1,0,4.07A3,3,0,0,1,202.06,140Z" style="fill: #c63fa6"/>
    <path d="M275.95,389.25a2,2,0,0,1-3.08-.62A3.73,3.73,0,0,1,275.95,389.25Z" style="fill: #f0cfe8"/>
    <path d="M256.9,13a3.43,3.43,0,0,1-.42-3C257.87,10.84,257.89,11.87,256.9,13Z" style="fill: #c63fa6"/>
    <path d="M236,397.1a2.26,2.26,0,0,1,3-.12Z" style="fill: #f0cfe8"/>
    <path d="M328.29,398.42c-.15.26-.24.64-.47.75-.47.23-1,.13-.9-.53,0-.22.39-.52.65-.58S328,398.28,328.29,398.42Z" style="fill: #c63fa6"/>
    <path d="M358,317a3.55,3.55,0,0,1,.52,3C357.16,319.2,357.07,318.19,358,317Z" style="fill: #c63fa6"/>
    <path d="M192.47,287a3.23,3.23,0,0,1-.38,3C191.12,288.89,191.11,287.86,192.47,287Z" style="fill: #c63fa6"/>
    <path d="M262,177a3.23,3.23,0,0,1-.23-3C262.93,174.93,262.88,175.94,262,177Z" style="fill: #c63fa6"/>
    <path d="M295.11,16a3.46,3.46,0,0,1,.44,3C294.14,18.17,294.11,17.13,295.11,16Z" style="fill: #c63fa6"/>
    <path d="M252.86,395.23a1.29,1.29,0,0,1,2.1-.39Z" style="fill: #f0cfe8"/>
    <path d="M260.86,394.24a1.35,1.35,0,0,1,2.1-.38Z" style="fill: #f0cfe8"/>
    <path d="M281,392a1.33,1.33,0,0,1,2-.21A1.51,1.51,0,0,1,281,392Z" style="fill: #f0cfe8"/>
    <path d="M221.87,399.41a1.3,1.3,0,0,1,2.1-.55Z" style="fill: #f0cfe8"/>
    <path d="M268,388.09a1.36,1.36,0,0,1-2.13-.29Z" style="fill: #f0cfe8"/>
    <path d="M258,386.1a1.3,1.3,0,0,1-2.12-.34Z" style="fill: #f0cfe8"/>
    <path d="M248,384.07a1.28,1.28,0,0,1-2.12-.43Z" style="fill: #f0cfe8"/>
    <path d="M325.16,353.32l.58-1.3.61,1.1Z" style="fill: #c63fa6"/>
    <path d="M252,345.64l2,.36A1.19,1.19,0,0,1,252,345.64Z" style="fill: #c63fa6"/>
    <path d="M321.91,332l-.24-2A1.19,1.19,0,0,1,321.91,332Z" style="fill: #c63fa6"/>
    <path d="M304,264l.06,2A1.24,1.24,0,0,1,304,264Z" style="fill: #c63fa6"/>
    <path d="M265.83,256.07l-.35-2.07C266.48,254.54,266.61,255.23,265.83,256.07Z" style="fill: #c63fa6"/>
    <polygon points="317.47 394.73 317.33 394.34 317.68 394.39 317.47 394.73" style="fill: #c63fa6"/>
  </g>
</svg>
