<svg id="Layer_1" data-name="Layer 1" xmlns="http://www.w3.org/2000/svg" width="1136" height="778.29" viewBox="0 0 1136 778.29">
  <title>mitoEM-overlay</title>
  <path d="M132.93,541a364.66,364.66,0,0,0-16.52-113.8c-2.1-6.73-12.73-3.86-10.61,2.92A354.53,354.53,0,0,1,121.93,541c-.1,7.08,10.9,7.08,11,0Z" style="fill: #b9539f"/>
  <path d="M196.3,530c-6.29-16.61-.82-34.55-3.16-51.73-1.19-8.72-4.64-16.54-8.16-24.53a136,136,0,0,1-8.19-25.39c-3.78-16.9-7-33.47-14.55-49.19a134.16,134.16,0,0,0-29.06-39.28c-5.16-4.84-13,2.92-7.78,7.78a125.75,125.75,0,0,1,28.05,38.54c7.25,15.49,9.61,32.2,13.57,48.67a142.7,142.7,0,0,0,8.46,24.42c3.41,7.73,6.57,15.38,7.18,23.9,1.19,16.68-3.08,33.6,3,49.73,2.48,6.56,13.12,3.71,10.61-2.92Z" style="fill: #b9539f"/>
  <path d="M158.53,494.36c-7.34-14.05-4.51-30.62-4.85-45.84S149,419.28,141.62,406c-14.89-26.78-42-51.79-38.82-85,.67-7-10.33-7-11,0-3.28,34.29,22.58,60.19,38.64,87.57,8.36,14.26,12.36,28.44,12.27,45-.09,15.86-1.26,31.82,6.32,46.35,3.28,6.28,12.78.72,9.5-5.55Z" style="fill: #b9539f"/>
  <path d="M104.43,407.07C85.27,398.64,71.85,380,70.86,359c-.33-7-11.34-7.09-11,0,1.17,24.65,16.3,47.61,39,57.61,6.42,2.83,12-6.65,5.55-9.5Z" style="fill: #b9539f"/>
  <path d="M42.67,406.2c6.27,6.94,10.54,15.29,15.9,22.88,5.48,7.77,11.79,14.89,17.83,22.22,11.38,13.81,23.29,31.14,19.46,50-1.4,6.91,9.2,9.87,10.61,2.92,4.17-20.51-5.47-39.32-17.76-55.09-6.56-8.41-13.89-16.22-20.1-24.89s-11-18-18.15-25.84c-4.76-5.26-12.52,2.53-7.78,7.78Z" style="fill: #b9539f"/>
  <path d="M83.69,523a112.38,112.38,0,0,0-32.27-73.41c-5-5-12.77,2.74-7.78,7.78a100.74,100.74,0,0,1,29,65.63c.36,7,11.36,7.09,11,0Z" style="fill: #b9539f"/>
  <path d="M218.61,528.89c2-38.8,3.84-78.87-8.79-116.23a136.26,136.26,0,0,0-25.11-45.1c-6.38-7.49-11.24-14.22-14.23-23.7-2.6-8.23-4.73-16.57-9.26-24-3.67-6-13.19-.52-9.5,5.55,4.61,7.57,6.3,16.2,9.16,24.48a64.65,64.65,0,0,0,12.5,21.37c11.4,13.36,20.17,27.6,25.83,44.33,12.32,36.47,10.33,75.45,8.4,113.31-.36,7.08,10.64,7.06,11,0Z" style="fill: #b9539f"/>
  <path d="M203.58,338.93q19.56,47,35.4,95.44c2.19,6.7,12.82,3.83,10.61-2.92Q233.76,383,214.19,336c-2.68-6.44-13.33-3.62-10.61,2.92Z" style="fill: #b9539f"/>
  <path d="M234.18,482.55l7.11,39.8c1.24,7,11.85,4,10.61-2.92l-7.11-39.8c-1.24-7-11.85-4-10.61,2.92Z" style="fill: #b9539f"/>
  <path d="M276,527a320.38,320.38,0,0,1-1.19-52c.41-7.07-10.59-7-11,0A320.38,320.38,0,0,0,265,527c.73,7,11.74,7,11,0Z" style="fill: #b9539f"/>
  <path d="M302.64,515a179.4,179.4,0,0,1-9.91-60.1c.1-9.67,1.59-19.57-1.09-29-2.59-9.15-8.49-16.94-10.43-26.31-1.44-6.93-12-4-10.61,2.92,1.9,9.13,7.47,16.7,10.19,25.52,3,9.74.84,20.57.94,30.6A189.28,189.28,0,0,0,292,517.89c2.28,6.66,12.91,3.8,10.61-2.92Z" style="fill: #b9539f"/>
  <path d="M325.36,515.5c-6.17-17.76-3.8-36.49-3.37-54.89.38-16.17-1.45-31.66-8.05-46.54-11.77-26.55-36.33-47.18-64.66-53.69-6.89-1.58-9.83,9-2.92,10.61a84.72,84.72,0,0,1,59.15,51.24c12,31.08-1.62,64.94,9.24,96.21,2.31,6.65,12.94,3.79,10.61-2.92Z" style="fill: #b9539f"/>
  <path d="M247.64,231.31c-5.32,17.9.78,35.71,7.38,52.36,6.45,16.28,14.93,34.18,10.06,52-1.87,6.84,8.74,9.76,10.61,2.92,4.94-18.06-1.3-35.81-7.94-52.53-6.46-16.25-14.76-34.11-9.49-51.82,2-6.8-8.59-9.71-10.61-2.92Z" style="fill: #b9539f"/>
  <path d="M219,241a179.57,179.57,0,0,0,8.83,49.77c2.2,6.69,12.83,3.83,10.61-2.92A168.63,168.63,0,0,1,230,241c-.25-7.06-11.25-7.09-11,0Z" style="fill: #b9539f"/>
  <path d="M194,254.72a383.39,383.39,0,0,0,15.7,36.84c3.11,6.36,12.6.79,9.5-5.55a355.82,355.82,0,0,1-14.59-34.21c-2.41-6.59-13-3.75-10.61,2.92Z" style="fill: #b9539f"/>
  <path d="M171.66,274.31a263.71,263.71,0,0,0,11.95,46.55c2.36,6.62,13,3.77,10.61-2.92a263.71,263.71,0,0,1-11.95-46.55c-1.13-7-11.73-4-10.61,2.92Z" style="fill: #b9539f"/>
  <path d="M267.17,221.33c11.42,30.85,22.94,62,28.35,94.53,2.57,15.43,3.68,31.31,9.66,45.93s15.56,26.72,19.75,42c4.72,17.27,5,35.32,5.37,53.1.13,7.07,11.13,7.09,11,0-.29-15.59-.71-31.25-3.61-46.61A109.37,109.37,0,0,0,331,388c-3.18-7.52-7.52-14.36-11.44-21.5-7.79-14.18-10-29.78-12.25-45.58a337.41,337.41,0,0,0-10.78-48.18c-5.49-18.36-12.15-36.35-18.8-54.31-2.44-6.58-13.07-3.73-10.61,2.92Z" style="fill: #b9539f"/>
  <path d="M371.17,520.71c-10.15-30.29-4.78-62.38-2.48-93.47,1.16-15.63,1.52-31.3-.76-46.85S360.08,350,355,335.1c-5.77-16.92-10.86-34.14-8.94-52.2.75-7-10.26-7-11,0-3.44,32.34,14,61.18,20.7,91.88,6.88,31.76-.21,64.39-1.41,96.36-.67,17.72.55,35.6,6.21,52.51,2.24,6.68,12.86,3.81,10.61-2.92Z" style="fill: #b9539f"/>
  <path d="M292.3,210.52a94.29,94.29,0,0,0,9.1,27.17c3.21,6.31,12.71.75,9.5-5.55a84.75,84.75,0,0,1-8-24.55c-1.18-7-11.78-4-10.61,2.92Z" style="fill: #b9539f"/>
  <path d="M318.61,210.11a256.56,256.56,0,0,0,29.86,44.47c4.53,5.45,12.28-2.37,7.78-7.78a243.28,243.28,0,0,1-28.14-42.25c-3.3-6.26-12.8-.71-9.5,5.55Z" style="fill: #b9539f"/>
  <path d="M351.06,197.89l13.73,22.17c3.72,6,13.24.49,9.5-5.55l-13.73-22.17c-3.72-6-13.24-.49-9.5,5.55Z" style="fill: #b9539f"/>
  <path d="M382.62,191.9a9.33,9.33,0,0,1,7.44,9.09c0,7.08,11,7.09,11,0a20.41,20.41,0,0,0-15.52-19.7c-6.89-1.59-9.83,9-2.92,10.61Z" style="fill: #b9539f"/>
  <path d="M421.75,175.56a888.5,888.5,0,0,1,32.78,89c2.09,6.74,12.71,3.86,10.61-2.92A914.89,914.89,0,0,0,431.24,170c-2.8-6.48-12.27-.89-9.5,5.55Z" style="fill: #b9539f"/>
  <path d="M454.78,180.43l17.53,44.18c2.58,6.5,13.22,3.67,10.61-2.92l-17.53-44.18c-2.58-6.5-13.22-3.67-10.61,2.92Z" style="fill: #b9539f"/>
  <path d="M487.76,164.74a53.09,53.09,0,0,1-8.89,47c-4.32,5.51,3.41,13.35,7.78,7.78a64.63,64.63,0,0,0,11.72-57.68c-1.93-6.8-12.54-3.91-10.61,2.92Z" style="fill: #b9539f"/>
  <path d="M510.46,176.56a123.1,123.1,0,0,0,17.71,30.29c4.4,5.54,12.13-2.29,7.78-7.78a104.88,104.88,0,0,1-14.88-25.43c-2.64-6.47-13.29-3.64-10.61,2.92Z" style="fill: #b9539f"/>
  <path d="M534.62,173.09a195.55,195.55,0,0,1,18.55,53c3.58,18.4,2.63,37,4.85,55.47,4.29,35.88,20.16,68.79,37.77,99.88,3.49,6.16,13,.62,9.5-5.55-17.76-31.35-34.26-65-37-101.51-1.36-18.43-1.39-36.58-5.27-54.76a206.26,206.26,0,0,0-18.94-52.13c-3.27-6.28-12.77-.73-9.5,5.55Z" style="fill: #b9539f"/>
  <path d="M519,257.26c-1.89,32.52,16.15,60.62,27.51,89.8,6.26,16.08,8.73,32.54,11.53,49.47a134.55,134.55,0,0,0,16.86,46.87c8.87,15.22,19.27,29.81,23.25,47.25,1.57,6.9,12.18,4,10.61-2.92-3.45-15.13-11.43-28.45-19.39-41.57-8.42-13.88-15.7-27.5-19.06-43.54-3.55-17-4.75-34.26-10.37-50.78-5-14.79-12.06-28.78-18.23-43.1C534.66,292.38,529,275.3,530,257.26c.41-7.07-10.59-7-11,0Z" style="fill: #b9539f"/>
  <path d="M592,452.52c14.12-.14,27.6,8.61,32.59,22,2.45,6.57,13.09,3.73,10.61-2.92A45.94,45.94,0,0,0,592,441.52c-7.07.07-7.09,11.07,0,11Z" style="fill: #b9539f"/>
  <path d="M523,335.66c-8,26.08,3.06,53.27,11.52,77.79q13.93,40.38,30.32,79.85c2.67,6.45,13.32,3.62,10.61-2.92q-15.61-37.67-29.05-76.18c-8.15-23.41-20.49-50.6-12.79-75.61,2.09-6.78-8.53-9.68-10.61-2.92Z" style="fill: #b9539f"/>
  <path d="M554.59,492.79c-2.91-2.25-3.6-6.88-4.31-10.22-1.15-5.38-2.2-10.79-3.29-16.19l-6.7-33c-1.41-6.93-12-4-10.61,2.92l7.89,38.8c2,9.94,2.92,20.56,11.47,27.16,5.6,4.32,11.08-5.23,5.55-9.5Z" style="fill: #b9539f"/>
  <path d="M511.82,385a425.37,425.37,0,0,0-28.71-118.16c-2.61-6.48-13.26-3.65-10.61,2.92A415.56,415.56,0,0,1,500.82,385c.67,7,11.68,7.05,11,0Z" style="fill: #b9539f"/>
  <path d="M481,369.57c-4.82,21.54,10.88,40.48,14.7,60.95,4.46,23.87,6.52,48.39,9.64,72.47.9,6.92,11.91,7,11,0-3-23.25-5.61-46.6-9.1-69.79A122.35,122.35,0,0,0,498,402.5c-4-9.39-8.79-19.57-6.45-30,1.54-6.9-9.06-9.84-10.61-2.92Z" style="fill: #b9539f"/>
  <path d="M485.71,505.24c-3.5-11.43-7.19-23.09-7.66-35.13s3.68-23.52,3.9-35.51c.42-22.22-9-43.2-19.18-62.41-3.32-6.25-12.82-.7-9.5,5.55,10.08,19,19.64,40.1,17.38,62.15-1.19,11.53-4.4,22.3-3.35,34s4.37,23,7.81,34.25c2.07,6.75,12.69,3.87,10.61-2.92Z" style="fill: #b9539f"/>
  <path d="M449.78,514.61a53.59,53.59,0,0,0,1.37-23c-.43-3-4.15-4.53-6.77-3.84-3.16.83-4.27,3.84-3.84,6.77a40.48,40.48,0,0,1-1.37,17.2c-2,6.81,8.64,9.72,10.61,2.92Z" style="fill: #b9539f"/>
  <path d="M432.28,521a132,132,0,0,0-8.42-49.64c-2.48-6.56-13.11-3.72-10.61,2.92a123.51,123.51,0,0,1,8,46.72c-.16,7.08,10.84,7.08,11,0Z" style="fill: #b9539f"/>
  <path d="M405.85,517.44,401,489.59c-1.21-7-11.81-4-10.61,2.92l4.83,27.86c1.21,7,11.81,4,10.61-2.92Z" style="fill: #b9539f"/>
  <path d="M558.46,144.21l29,53.45c3.38,6.22,12.88.68,9.5-5.55l-29-53.45c-3.38-6.22-12.88-.68-9.5,5.55Z" style="fill: #b9539f"/>
  <path d="M590.77,138.45l3.76,24c1.09,7,11.69,4,10.61-2.92l-3.76-24c-1.09-7-11.69-4-10.61,2.92Z" style="fill: #b9539f"/>
  <path d="M612.59,130.69c-6.72,5.41-8.81,14.24-7.67,22.51,1.31,9.47,7,17.08,13.29,24,7.09,7.76,13.92,15.14,19.1,24.38A120.4,120.4,0,0,1,648.72,231c5.8,22.89,5.84,46.68,5.39,70.14-.47,24.79-.74,49.49,1,74.25a644.89,644.89,0,0,0,11.16,82.81c1.39,6.93,12,4,10.61-2.92-9.43-47-13-94.54-12-142.42.9-42.3,2.08-88.84-23.27-125.19-6.16-8.83-14.58-15.73-20.77-24.46-5.11-7.2-8.46-18.26-.44-24.72,5.51-4.44-2.31-12.18-7.78-7.78Z" style="fill: #b9539f"/>
  <path d="M699.69,455.42l-8-26c-2.08-6.74-12.7-3.87-10.61,2.92l8,26c2.08,6.74,12.7,3.87,10.61-2.92Z" style="fill: #b9539f"/>
  <path d="M740.09,441.38C730,435.37,728.93,421.54,728,411a355.62,355.62,0,0,0-6.75-44.61A334.19,334.19,0,0,0,689,280.09c-3.36-6.23-12.86-.68-9.5,5.55a323.66,323.66,0,0,1,32.63,90.7C715,391,716,405.83,718,420.61c1.68,11.89,5.62,23.82,16.49,30.27,6.1,3.62,11.64-5.88,5.55-9.5Z" style="fill: #b9539f"/>
  <path d="M762.9,430.16c-17.66-38.5-13.5-82.58-26.7-122.36-6.69-20.18-17.64-38.48-27.46-57.22a261.71,261.71,0,0,1-22.89-61.22c-5.85-24.52-9-49.56-12-74.55-.84-6.94-11.85-7-11,0,5.4,44.43,11.18,89.41,30.77,130.21,9.4,19.57,21.35,38,29.26,58.22,7.8,20,10.73,41.31,13.57,62.46,3.22,24,6.76,47.84,16.93,70,2.95,6.43,12.43.84,9.5-5.55Z" style="fill: #b9539f"/>
  <path d="M642.93,125.62a78.49,78.49,0,0,0-2.81,39c1.2,7,11.81,4,10.61-2.92a66.87,66.87,0,0,1,2.81-33.1c2.28-6.72-8.34-9.6-10.61-2.92Z" style="fill: #b9539f"/>
  <path d="M682.59,120.39c2.69,12.64,13.9,20,19.11,31.25,2.94,6.37,4,13.52,5.65,20.28a84.21,84.21,0,0,0,7.54,19.72c7,13.12,13.65,25.51,17.07,40.11a121.71,121.71,0,0,1,2,43.16c-.89,7,10.12,6.94,11,0,3.78-29.85-3.5-58.21-18.06-84.19-3.63-6.48-6.73-12.87-8.58-20.09-1.73-6.74-2.85-13.65-5.32-20.18-2.4-6.33-6.06-11.59-10.31-16.81-4-5-8.16-9.74-9.53-16.17-1.47-6.92-12.08-4-10.61,2.92Z" style="fill: #b9539f"/>
  <path d="M710.86,106.39l10,24c2.68,6.44,13.33,3.61,10.61-2.92l-10-24c-2.68-6.44-13.33-3.61-10.61,2.92Z" style="fill: #b9539f"/>
  <path d="M757.31,92.21A86.38,86.38,0,0,1,769,142.39c-.7,9.16-3,18.11-3.74,27.26-.78,9.6.75,19.09,2.93,28.42,4.38,18.68,8.86,37.19,11.87,56.16A538,538,0,0,1,786,312.85c.34,7,11.34,7.09,11,0a566,566,0,0,0-5.89-58.7c-3.06-19.93-7.72-39.39-12.31-59-2.27-9.71-3.4-19.21-2.16-29.15,1.17-9.33,3.32-18.49,3.58-27.92a97.25,97.25,0,0,0-13.37-51.42c-3.56-6.11-13.07-.58-9.5,5.55Z" style="fill: #b9539f"/>
  <path d="M754.76,321A304.08,304.08,0,0,0,787.7,441.54c3.23,6.3,12.72.74,9.5-5.55a290.6,290.6,0,0,1-31.44-115c-.42-7-11.43-7.08-11,0Z" style="fill: #b9539f"/>
  <path d="M815.86,421.34,782.6,325.78c-2.31-6.64-12.94-3.79-10.61,2.92l33.26,95.56c2.31,6.64,12.94,3.79,10.61-2.92Z" style="fill: #b9539f"/>
  <path d="M778,321c12.17,10.54,9.47,30,17.85,43,5,7.85,13.64,11.28,19.64,18.09,6.5,7.37,9.41,17.29,12.27,26.48,2.09,6.74,12.72,3.86,10.61-2.92-2.93-9.42-6-19.2-11.88-27.27a46.84,46.84,0,0,0-10-10.11c-4-3-8.31-5.55-11.1-9.82-9.22-14.13-5.88-33.41-19.57-45.28-5.33-4.62-13.14,3.13-7.78,7.78Z" style="fill: #b9539f"/>
  <path d="M864.64,403c.71-22.94,1.13-46.74-8.1-68.24-4.4-10.26-11-19.23-17.55-28.16a206.55,206.55,0,0,1-18.62-29.22c-10.42-20.55-16.93-42.82-23.46-64.84-3.68-12.42-7.41-25.11-7.87-38.13-.4-11.36,2.33-22,6.23-32.54,7.66-20.82,19.83-43.43,10.77-65.82-2.62-6.48-13.27-3.65-10.61,2.92,7.89,19.5-3.06,39.57-9.92,57.69-3.91,10.33-7.06,20.91-7.48,32-.45,12,2,24,5.08,35.6,6,22.29,12.77,44.73,21.86,66a183.19,183.19,0,0,0,16,30.05c6.21,9.25,13.4,17.82,19.31,27.27,14.34,22.91,14.13,49.3,13.32,75.43-.22,7.08,10.78,7.07,11,0Z" style="fill: #b9539f"/>
  <path d="M817.25,86.91a691.61,691.61,0,0,0,13.53,123.56c8.12,40.25,19.66,79.72,32.47,118.7,7.22,22,14.85,43.78,22.53,65.58,2.34,6.63,13,3.78,10.61-2.92-27-76.45-53.32-153.85-63.23-234.68a684.7,684.7,0,0,1-4.91-70.23c-.13-7.07-11.14-7.09-11,0Z" style="fill: #b9539f"/>
  <path d="M918.69,387.08a93.16,93.16,0,0,0-24.52-54.23c-4.83-5.19-12.6,2.6-7.78,7.78a80.77,80.77,0,0,1,21.3,46.45c.73,7,11.74,7,11,0Z" style="fill: #b9539f"/>
  <path d="M853.14,91.69c-6.21,26.22,6.21,52.35,7.69,78.47.77,13.66-.47,27.06-2.61,40.54s-4,26.8-.86,40.24c1.6,6.89,12.21,4,10.61-2.92-3-13-.4-26.15,1.61-39.09a185.11,185.11,0,0,0,2.26-38.77c-.7-12.53-3.1-24.72-5.77-37-2.78-12.7-5.36-25.7-2.31-38.59,1.63-6.88-9-9.82-10.61-2.92Z" style="fill: #b9539f"/>
  <path d="M903.93,285a216.93,216.93,0,0,0-11.17-61.66c-5.52-16.32-15-38.39-2.15-53.8,4.51-5.4-3.23-13.22-7.78-7.78-13.62,16.29-9.93,37.4-3.62,56,7.5,22.05,12.88,43.9,13.72,67.28.25,7.06,11.26,7.09,11,0Z" style="fill: #b9539f"/>
  <path d="M945,376.43c6.81-40.18-18-75.36-28.42-112.55-5.66-20.2-9.11-41.11-12.43-61.8-3.49-21.74-5-43.5.13-65.1,5.16-21.88,14-43.19,12.75-66.06-.37-7-11.37-7.09-11,0,1.07,20.33-6.27,39.4-11.27,58.78-5.33,20.67-5.81,41.22-3.1,62.33,2.63,20.49,6.31,41.09,10.89,61.23,4.45,19.57,11.74,37.81,19.26,56.35,8.17,20.14,16.32,41.82,12.57,63.9-1.17,6.92,9.42,9.9,10.61,2.92Z" style="fill: #b9539f"/>
  <path d="M886.47,75.75a45.66,45.66,0,0,0-5.56,30.68c1.08,7,11.68,4,10.61-2.92A33.56,33.56,0,0,1,896,81.3c3.57-6.13-5.93-11.67-9.5-5.55Z" style="fill: #b9539f"/>
  <path d="M939,243.09A130.28,130.28,0,0,0,945.79,302c6.33,17.5,18.73,33.91,19,53.1.09,7.07,11.09,7.09,11,0-.25-19.39-11.18-35.25-18.1-52.67a122.57,122.57,0,0,1-7.62-59.3c.8-7-10.21-7-11,0Z" style="fill: #b9539f"/>
  <path d="M1002.06,331.38c-3.57-20-7.17-39.94-9.3-60.11-1.94-18.4-2.19-36.82-2.22-55.31-.06-35.22-.48-71.25-16-103.67-3.05-6.38-12.54-.81-9.5,5.55,15.37,32.13,14.4,68.64,14.5,103.4a485.84,485.84,0,0,0,2.75,54.86c2.27,19.52,5.69,38.87,9.15,58.2,1.24,7,11.85,4,10.61-2.92Z" style="fill: #b9539f"/>
  <path d="M959.57,82.61c-22.48,24.64-28.16,60.94-14.81,91.39,2.84,6.47,12.32.88,9.5-5.55C943,142.74,948.5,111,967.35,90.39c4.76-5.22-3-13-7.78-7.78Z" style="fill: #b9539f"/>
  <path d="M991.1,126.2q6,18.45,12,36.9c3.42,10.42,7,21,12.89,30.39,10.43,16.66,30.85,29.93,50.89,22.37,6.56-2.47,3.72-13.11-2.92-10.61-18.15,6.84-34-8-41.71-23.07-4.28-8.39-7.05-17.45-10-26.38l-10.62-32.53c-2.19-6.7-12.81-3.83-10.61,2.92Z" style="fill: #b9539f"/>
  <path d="M1065.61,231.34a34.86,34.86,0,0,0-19-1.5c-2.92.54-4.58,4.08-3.84,6.77.84,3.07,3.83,4.38,6.77,3.84a24.1,24.1,0,0,1,13.19,1.5c2.77,1.07,6-1.18,6.77-3.84.85-3.1-1.06-5.7-3.84-6.77Z" style="fill: #b9539f"/>
  <path d="M1019,257.87a133.72,133.72,0,0,0,35.6,23.22c6.42,2.83,12-6.64,5.55-9.5a124.77,124.77,0,0,1-33.38-21.5c-5.24-4.73-13,3-7.78,7.78Z" style="fill: #b9539f"/>
  <path d="M1009.77,276.76c-.65,15.35,13.69,24.51,26,30.17,6.39,2.94,12-6.53,5.55-9.5-8.41-3.87-21-9.76-20.53-20.68.3-7.08-10.7-7.06-11,0Z" style="fill: #b9539f"/>
  <path d="M1013.09,118.31a18.08,18.08,0,0,1-.27,13.71c-1.24,2.72-.76,5.89,2,7.53,2.35,1.41,6.3.72,7.53-2a29.29,29.29,0,0,0,1.37-22.18c-2.32-6.64-13-3.78-10.61,2.92Z" style="fill: #b9539f"/>
  <path d="M1035,133.6a81.72,81.72,0,0,1-9.38,24.86c-3.55,6.14,6,11.69,9.5,5.55a91.34,91.34,0,0,0,10.48-27.49c1.41-6.91-9.19-9.87-10.61-2.92Z" style="fill: #b9539f"/>
  <path d="M1038.69,179.87a28.18,28.18,0,0,0,24.4-3.7c5.77-4,.27-13.56-5.55-9.5a17.6,17.6,0,0,1-15.93,2.59c-6.78-2.09-9.68,8.52-2.92,10.61Z" style="fill: #b9539f"/>
  <path d="M1054,196.5h20c7.08,0,7.09-11,0-11h-20c-7.08,0-7.09,11,0,11Z" style="fill: #b9539f"/>
  <path d="M834.52,710.81c-11.88-7.81-16.13-22.51-19.25-35.6-4-16.9-7.16-34-9.52-51.25-4.41-32.11-3.62-66.28-19.23-95.61-3.33-6.25-12.83-.7-9.5,5.55,8.05,15.14,11.27,32.12,13.23,49,2,17.2,3.39,34.42,6,51.55s5.57,34.34,10.3,50.94c3.91,13.73,10.17,26.85,22.43,34.91,5.93,3.9,11.45-5.62,5.55-9.5Z" style="fill: #b9539f"/>
  <path d="M794.1,529.37c6,14.15,12.29,28.28,22.57,39.93,9.34,10.59,21.26,18.53,32.8,26.5,11.79,8.14,23.38,16.62,32.1,28.16,8.58,11.35,14.45,24.52,18.77,38,5.07,15.81,8.19,32.16,11.18,48.47,1.28,7,11.88,4,10.61-2.92-5.2-28.37-10.89-58-26.63-82.68-7.8-12.25-17.91-22.11-29.51-30.74s-24.26-16-35-25.89c-13.25-12.19-20.5-28.09-27.43-44.38-2.76-6.49-12.24-.89-9.5,5.55Z" style="fill: #b9539f"/>
  <path d="M904.6,697c-12.65-31.13-35.06-57.77-64.14-74.79-5.72-3.35-14.15-7.45-19.71-1.46-5.9,6.36-.14,16,2.71,22.49a181.06,181.06,0,0,0,29.4,46.18c6,6.79,13.42,13.44,22.53,15.36,8.56,1.8,17.79-.11,23.76-6.81,4.7-5.27-3.06-13.08-7.78-7.78-5.55,6.23-14.3,4.84-20.71.7-7.36-4.76-13.1-12.51-18.22-19.48a180,180,0,0,1-13.81-22q-3.25-6.13-6-12.49c-1-2.2-1.94-4.44-2.71-6.72a14.41,14.41,0,0,1-.77-2.57q-2,1.35.1,1.25c1,1,3.71,1.7,5,2.46q2.71,1.56,5.34,3.25c3.55,2.27,7,4.68,10.35,7.28a143.75,143.75,0,0,1,17.2,15.89A140.32,140.32,0,0,1,894,699.9c2.63,6.47,13.28,3.64,10.61-2.92Z" style="fill: #b9539f"/>
  <path d="M918.17,701.83a251.37,251.37,0,0,0,86.24-27.19,5.58,5.58,0,0,0,2-7.53,122.64,122.64,0,0,1-13.5-35.58c-2.72-13.06-3.33-26.42-4.49-39.67-2-23-6.09-46-20.86-64.47-4.42-5.53-12.16,2.3-7.78,7.78,14.84,18.56,16.6,43.59,18.42,66.31,2,25.17,6.09,48.95,18.71,71.19l2-7.53a236.47,236.47,0,0,1-80.69,25.69c-6.93.88-7,11.89,0,11Z" style="fill: #b9539f"/>
  <path d="M979.53,533.08q2.33,19.81,4.66,39.63c1.44,12.25,3.55,23.48,9.08,34.62,5.44,11,11.9,21.45,17.94,32.09,4.8,8.45,9.25,19.94,17.74,25.47,8.06,5.25,17.12,2.76,24.52-2.3,3.65-2.5,7-5.4,10.75-7.77,3.9-2.47,9-3.53,11.67-7.56,6-9-3.77-20.61-7-28.82-4.29-10.82-5.21-21.44-1.4-32.54,4.08-11.9,12-21.69,18-32.59,2.86-5.19,4.9-11.16,3.07-17.06-1.55-5-5.54-9.24-10.86-10l-1.46,10.8c6.53-.42,10,5.34,11.81,10.87,2.13,6.59,3.44,13.51,5.05,20.24q5.23,21.82,10.47,43.64c2.46,10.22,5.86,23.21,17.15,26.92,8.54,2.81,19.73-.9,21.63-10.5,1.37-6.91-9.23-9.87-10.61-2.92-.63,3.17-4.14,3.91-7,3.14-4.73-1.27-7-6.85-8.33-11.07-3.81-12-6.11-24.69-9.05-37-2.87-12-4.91-24.55-8.94-36.19-3.37-9.74-10.91-18.91-22.17-18.18-5.76.37-8,9.88-1.46,10.8,9.56,1.36-3.19,18-5.46,21.66-4.83,7.76-9.47,15.76-12.44,24.45a52.54,52.54,0,0,0-2,26.76c1.75,9.45,6.19,17.85,10.33,26.4.69,1.43,2.26,3.7,1.28,5.25-.63,1-3.71,1.68-4.8,2.23a67.4,67.4,0,0,0-9.78,6.61c-5.25,4-12.15,9.84-18.34,4.3-2.91-2.6-4.72-6.41-6.62-9.75l-7.61-13.42c-5.27-9.28-10.81-18.47-15.69-28-5.4-10.49-7.27-21.06-8.63-32.67l-4.42-37.65c-.82-6.95-11.83-7-11,0Z" style="fill: #b9539f"/>
  <path d="M822.73,710.78A400.67,400.67,0,0,0,748.66,732c-6.51,2.57-3.68,13.21,2.92,10.61a400.67,400.67,0,0,1,74.08-21.23c7-1.29,4-11.89-2.92-10.61Z" style="fill: #b9539f"/>
</svg>
