<svg id="Layer_1" data-name="Layer 1" xmlns="http://www.w3.org/2000/svg" width="1136" height="778.29" viewBox="0 0 1136 778.29">
  <title>mitoEM-overlay</title>
  <path d="M351.3,171.3c-71.18,45.22-156.17,61.38-228.19,105-32.55,19.71-62.42,45-82.67,77.54a157.07,157.07,0,0,0-22.93,95.73c3,33,17.57,64.06,44.52,84.08,32.37,24,75.47,28.66,114.59,28a371.68,371.68,0,0,0,69.57-8c22.32-4.66,44.27-10.89,66.48-16a402.18,402.18,0,0,1,70.36-10c23.27-1.19,46.59-1.08,69.87-2.24,89.95-4.48,178.51-23.9,264.24-50.85,85.9-27,169.78-61,252.24-97,20.15-8.81,39.94-18.58,57.32-32.21a171.13,171.13,0,0,0,39.2-43.62A157.09,157.09,0,0,0,1088,194c-5.91-36.71-27.15-67.94-58.08-88.25-31.46-20.66-69.27-29.59-106.29-33.34-86.38-8.77-172.34,10.45-255.42,32.21-42.48,11.13-84.76,23.07-127.57,32.89-21.59,5-43.31,9.36-65.19,12.82-21,3.32-42.23,5-63.33,7.72-20.36,2.65-40.42,6.92-58.71,16.59-6.26,3.31-.71,12.81,5.55,9.5,18.35-9.7,39-13.46,59.38-15.86,20.65-2.42,41.3-4.34,61.84-7.63,42-6.74,83.43-16.94,124.57-27.77C686.06,111.48,767.64,86.72,852,82c39.16-2.19,79.48-.6,117.54,9.57,34.12,9.11,68.09,26.23,88.57,56s25.21,68.18,17.19,103.05c-8.6,37.38-32.16,70.58-63.75,92.18-17.47,11.95-36.91,20.57-56.3,28.86q-30.43,13-61,25.65c-40.36,16.63-81,32.6-122.14,47.17-82.38,29.17-167.2,53-254.06,64.05q-32.45,4.12-65.14,5.8c-22.62,1.13-45.27,1.06-67.89,2.14a405.37,405.37,0,0,0-65.73,8.34c-22,4.71-43.61,10.83-65.52,15.85-41.9,9.6-86.64,14-129.26,6.38-35.05-6.31-67.61-23.15-84.3-55.86-14.51-28.42-15.3-62.73-7.05-93.1,9.28-34.2,31.23-62.8,57.91-85.53,60.85-51.83,140.68-70.93,212.06-103.17a429.46,429.46,0,0,0,53.74-28.6c6-3.79.45-13.31-5.55-9.5Z" style="fill: #b9539f"/>
  <path d="M752,761.81c53.23-14.62,106.86-29.45,162-34.93,27.05-2.69,54.32-2.77,81.28-6.53,25.32-3.53,49.38-11.37,72.44-22.32,26-12.33,50.2-28,74.29-43.56,5.92-3.83.41-13.36-5.55-9.5-42.38,27.44-85.93,55.13-136.59,63.62-27.1,4.54-54.72,4.42-82,6.91a640.82,640.82,0,0,0-79.19,12.75C808.47,734.89,778.74,743,749,751.21c-6.82,1.87-3.92,12.49,2.92,10.61Z" style="fill: #b9539f"/>
</svg>
